<?xml version="1.0" standalone="no"?>
<!DOCTYPE svg PUBLIC "-//W3C//DTD SVG 20010904//EN"
 "http://www.w3.org/TR/2001/REC-SVG-20010904/DTD/svg10.dtd">
<svg version="1.0" xmlns="http://www.w3.org/2000/svg"
 width="700.000000pt" height="700.000000pt" viewBox="0 0 700.000000 700.000000"
 preserveAspectRatio="xMidYMid meet">
<metadata>
Created by potrace 1.11, written by Peter Selinger 2001-2013
</metadata>
<g transform="translate(0.000000,700.000000) scale(0.100000,-0.100000)"
fill="#000000" stroke="none">
<path d="M3041 6978 c-273 -48 -598 -300 -773 -598 -61 -104 -91 -170 -126
-280 -30 -94 -34 -112 -52 -240 -5 -36 -9 -258 -10 -494 0 -237 -3 -432 -6
-435 -3 -3 -164 -7 -357 -8 -565 -2 -662 -11 -853 -77 -356 -121 -690 -437
-806 -761 -70 -193 -51 -349 50 -428 80 -62 3 -59 1587 -59 1607 0 1510 -4
1594 68 48 42 82 91 100 147 10 30 13 354 13 1487 0 1574 2 1513 -54 1586 -63
82 -176 116 -307 92z"/>
<path d="M3800 6976 c-70 -15 -88 -25 -133 -75 -73 -81 -69 15 -69 -1589 0
-790 3 -1453 7 -1472 21 -117 113 -206 245 -237 8 -2 661 -4 1450 -4 1457 -1
1493 0 1559 36 129 71 160 236 84 448 -27 76 -50 121 -117 227 -53 83 -79 115
-194 228 -183 179 -395 293 -672 359 -52 12 -154 16 -515 19 -247 3 -466 5
-485 7 l-35 2 -1 425 c-1 347 -6 517 -19 570 0 3 -4 23 -9 45 -46 242 -184
494 -376 685 -137 138 -204 184 -420 290 -27 13 -144 39 -195 43 -27 3 -75 -1
-105 -7z"/>
<path d="M285 3399 c-102 -8 -156 -30 -204 -85 -79 -89 -86 -225 -22 -401 56
-154 148 -292 291 -433 214 -213 470 -343 765 -389 33 -5 260 -10 505 -10 244
-1 447 -4 450 -7 3 -3 5 -204 6 -447 1 -478 7 -540 60 -716 73 -239 233 -477
446 -659 89 -76 242 -162 363 -203 102 -35 250 -34 319 1 58 30 102 87 120
157 11 42 13 315 12 1510 l-1 1458 -23 50 c-40 86 -116 150 -202 171 -41 9
-2765 12 -2885 3z"/>
<path d="M3814 3386 c-92 -24 -174 -105 -204 -199 -9 -29 -12 -391 -12 -1480
0 -793 3 -1458 7 -1477 29 -164 163 -240 364 -205 108 18 269 93 388 180 228
168 411 420 497 685 58 180 64 244 65 735 1 241 4 442 7 445 3 3 202 6 442 6
524 1 608 11 819 95 294 116 568 362 703 629 110 218 119 409 25 513 -35 40
-62 55 -125 72 -63 17 -2914 17 -2976 1z"/>
</g>
</svg>
