<?xml version="1.0" encoding="utf-8"?>
<svg xmlns="http://www.w3.org/2000/svg"
	xmlns:xlink="http://www.w3.org/1999/xlink"
	width="195px" height="61px" viewBox="0 0 195 61">
<path fillRule="evenodd" d="M 166.66 29.94C 166.66 29.94 166.66 30.72 166.66 30.72 166.66 30.72 166.99 31.17 166.99 31.17 166.99 31.17 161.1 36 161.1 36 161.1 36 160.35 34.97 160.35 34.97 160.35 34.97 164.78 31.34 164.78 31.34 164.78 31.34-0 31-0 31-0 31-0 30-0 30-0 30 165.16 29.94 165.16 29.94 165.16 29.94 160.66 25.99 160.66 25.99 160.66 25.99 161.34 24.99 161.34 24.99 161.34 24.99 166.66 29.66 166.66 29.66 166.66 29.66 166.47 29.94 166.47 29.94 166.47 29.94 166.66 29.94 166.66 29.94Z" fill="rgb(51,51,51)"/><path fillRule="evenodd" d="M 164.5 60C 180.77 60 194 46.77 194 30.5 194 14.23 180.77 1 164.5 1 148.23 1 135 14.23 135 30.5 135 46.77 148.23 60 164.5 60M 164.5 61C 147.66 61 134 47.34 134 30.5 134 13.66 147.66-0 164.5-0 181.34-0 195 13.66 195 30.5 195 47.34 181.34 61 164.5 61 164.5 61 164.5 61 164.5 61Z" fill="rgb(0,184,89)"/></svg>