<svg xmlns="http://www.w3.org/2000/svg" xmlns:xlink="http://www.w3.org/1999/xlink" width="96px" height="137px" viewBox="0 0 96 137">
	<filter filterUnits="objectBoundingBox" x="0.00" y="0.00" width="100.00" height="100.00" id="filter0">
	<feFlood flood-color="rgb(95,95,95)" result="coFloodOut1"/>
	<feComposite in="coFloodOut1" in2="SourceAlpha" operator="in" result="coOverlay1"/>
	<feBlend in="coOverlay1" in2="SourceGraphic" mode="normal" result="colorOverlay1"/>
	</filter>
	<path fillRule="evenodd" d="M 56.01 87.51C 56.01 87.51 49.22 95.51 49.22 95.51 49.22 95.51 48.81 95.23 48.81 95.23 48.81 95.23 48.81 95.53 48.81 95.53 48.81 95.53 47.66 95.53 47.66 95.53 47.66 95.53 47.02 96.02 47.02 96.02 47.02 96.02 39.99 87.15 39.99 87.15 39.99 87.15 41.49 86.01 41.49 86.01 41.49 86.01 46.75 92.65 46.75 92.65 46.75 92.65 46.75-0 46.75-0 46.75-0 48.81-0 48.81-0 48.81-0 48.81 93.26 48.81 93.26 48.81 93.26 54.56 86.48 54.56 86.48 54.56 86.48 56.01 87.51 56.01 87.51Z" fill="rgb(51,51,51)" filter="url(#filter0)"/><path fillRule="evenodd" d="M 48 136C 73.92 136 95 114.92 95 89 95 63.08 73.92 42 48 42 22.08 42 1 63.08 1 89 1 114.92 22.08 136 48 136M 48 137C 21.49 137 0 115.51 0 89 0 62.49 21.49 41 48 41 74.51 41 96 62.49 96 89 96 115.51 74.51 137 48 137 48 137 48 137 48 137Z" fill="rgb(0,184,89)"/>
</svg>