<?xml version="1.0" encoding="utf-8"?>
<!-- Generator: Adobe Illustrator 21.0.0, SVG Export Plug-In . SVG Version: 6.00 Build 0)  -->
<svg version="1.1" id="Слой_1" xmlns="http://www.w3.org/2000/svg" xmlns:xlink="http://www.w3.org/1999/xlink" x="0px" y="0px"
	 viewBox="0 0 692.4 693.7" style="enable-background:new 0 0 692.4 693.7;" xml:space="preserve">
<style type="text/css">
	.qwer{fill:#00B95A;}
	.e2{fill:none;stroke:#00B95A;stroke-width:20;stroke-miterlimit:10;}
</style>
<g>
	<path class="qwer" d="M409,224.2l-32.1-0.1c-36,0-59.3,23.9-59.3,60.8V313h-32.3c-2.7,0-5.1,2.2-5.1,5.1v40.7c0,2.7,2.2,5.1,5.1,5.1
		h32.3v102.6c0,2.7,2.2,5.1,5.1,5.1h42c2.7,0,5.1-2.2,5.1-5.1V363.8h37.6c2.7,0,5.1-2.2,5.1-5.1V318c0-1.4-0.5-2.6-1.5-3.5
		c-1-1-2.2-1.5-3.5-1.5h-37.7v-23.8c0-11.4,2.7-17.2,17.6-17.2h21.6c2.7,0,5.1-2.2,5.1-5.1v-37.7C414,226.5,411.7,224.2,409,224.2z"
		/>
</g>
<circle class="e2" cx="347.2" cy="347.9" r="333.3"/>
</svg>
