<svg version="1.1" xmlns="http://www.w3.org/2000/svg" xmlns:xlink="http://www.w3.org/1999/xlink" x="0px" y="0px" viewBox="0 0 206 206" style="enable-background:new 0 0 206 206;" xml:space="preserve">
	<style type="text/css">.st0{fill:#E7BA4E;}.st1{fill:#D2544E;}.st2{fill:#608BC7;}.st3{fill:#78B66B;}</style>
	<path class="st0" d="M8.9,105.9c-19.8,0-2.8,38.9,29.2,38.9h22.6c0.2,0,0.4,0.2,0.4,0.4v22.6c0,32,38.9,49,38.9,29.2v-82.5
		c0-4.8-3.9-8.7-8.7-8.7L8.9,105.9z"/>
	<path class="st1" d="M38.1,61.2c-32,0-49,38.9-29.2,38.9h82.5c4.8,0,8.7-3.9,8.7-8.7V8.9c0-19.8-38.9-2.8-38.9,29.2v22.6
		c0,0.2-0.2,0.4-0.4,0.4L38.1,61.2L38.1,61.2z"/>
	<path class="st2" d="M105.9,8.9v82.5c0,4.8,3.9,8.7,8.7,8.7h82.5c19.8,0,2.8-38.9-29.2-38.9h-22.6c-0.2,0-0.4-0.2-0.4-0.4V38.1
		C144.8,6.1,105.9-10.9,105.9,8.9z"/>
	<path class="st3" d="M105.9,114.6v82.5c0,19.8,38.9,2.8,38.9-29.2v-22.6c0-0.2,0.2-0.4,0.4-0.4h22.6c32,0,49-38.9,29.2-38.9h-82.5
	C109.8,105.9,105.9,109.8,105.9,114.6z"/>
</svg>