<svg version="1.1" id="Layer_1" xmlns="http://www.w3.org/2000/svg" xmlns:xlink="http://www.w3.org/1999/xlink" x="0px" y="0px"
	 viewBox="0 0 75.7 75.7" style="enable-background:new 0 0 75.7 75.7;" xml:space="preserve">
	<style type="text/css">
		.sm-logo{fill-rule:evenodd;clip-rule:evenodd;fill:#FFFFFF;}
	</style>
	<path class="sm-logo" d="M4,39C-3.2,39,2.9,53,14.5,53h8.2c0.1,0,0.2,0.1,0.2,0.2v8.2c0,11.6,14.1,17.7,14.1,10.6V42.1
		c0-1.7-1.4-3.1-3.1-3.1L4,39z"/>
	<path class="sm-logo" d="M14.5,22.8C2.9,22.8-3.2,36.8,4,36.8l29.8,0c1.7,0,3.1-1.4,3.1-3.1l0-29.8c0-7.2-14.1-1-14.1,10.6v8.2
		c0,0.1-0.1,0.2-0.2,0.2H14.5z"/>
	<path class="sm-logo" d="M39,3.9v29.8c0,1.7,1.4,3.1,3.1,3.1H72c7.2,0,1-14.1-10.6-14.1h-8.2c-0.1,0-0.2-0.1-0.2-0.2v-8.2
		C53.1,2.9,39-3.3,39,3.9z"/>
	<path class="sm-logo" d="M39,42.1v29.8c0,7.2,14.1,1,14.1-10.6v-8.2c0-0.1,0.1-0.2,0.2-0.2h8.2C73,53,79.1,39,72,39H42.2
		C40.4,39,39,40.4,39,42.1z"/>
</svg>
