<?xml version="1.0" encoding="utf-8"?>
<svg xmlns="http://www.w3.org/2000/svg"
	xmlns:xlink="http://www.w3.org/1999/xlink"
	width="16px" height="131px" viewBox="0 0 16 131">
<path fillRule="evenodd" d="M 16.01 122.48C 16.01 122.48 9.22 130.48 9.22 130.48 9.22 130.48 8.81 130.2 8.81 130.2 8.81 130.2 8.81 130.5 8.81 130.5 8.81 130.5 7.66 130.5 7.66 130.5 7.66 130.5 7.02 130.98 7.02 130.98 7.02 130.98-0.01 122.12-0.01 122.12-0.01 122.12 1.49 120.98 1.49 120.98 1.49 120.98 6.75 127.62 6.75 127.62 6.75 127.62 6.75-0 6.75-0 6.75-0 8.81-0 8.81-0 8.81-0 8.81 128.23 8.81 128.23 8.81 128.23 14.56 121.45 14.56 121.45 14.56 121.45 16.01 122.48 16.01 122.48Z"/></svg>