<?xml version="1.0" encoding="utf-8"?>
<!-- Generator: Adobe Illustrator 21.0.0, SVG Export Plug-In . SVG Version: 6.00 Build 0)  -->
<svg version="1.1" id="Слой_1" xmlns="http://www.w3.org/2000/svg" xmlns:xlink="http://www.w3.org/1999/xlink" x="0px" y="0px"
	 viewBox="0 0 21.9 21.9" style="enable-background:new 0 0 21.9 21.9;" xml:space="preserve">
<style type="text/css">
	.st0{fill:#E7BA4E;}
	.st1{fill:#D2544E;}
	.st2{fill:#608BC7;}
	.st3{fill:#78B66B;}
</style>
<path class="st0" d="M1.3,11.2c-2,0-0.3,4,3,4h2.3c0,0,0,0,0,0v2.3c0,3.3,4,5,4,3v-8.4c0-0.5-0.4-0.9-0.9-0.9L1.3,11.2z"/>
<path class="st1" d="M4.3,6.6c-3.3,0-5,4-3,4h8.4c0.5,0,0.9-0.4,0.9-0.9V1.3c0-2-4-0.3-4,3v2.3c0,0,0,0,0,0L4.3,6.6L4.3,6.6z"/>
<path class="st2" d="M11.2,1.3v8.4c0,0.5,0.4,0.9,0.9,0.9h8.4c2,0,0.3-4-3-4h-2.3c0,0,0,0,0,0V4.3C15.2,1,11.2-0.7,11.2,1.3z"/>
<path class="st3" d="M11.2,12.1v8.4c0,2,4,0.3,4-3v-2.3c0,0,0,0,0,0h2.3c3.3,0,5-4,3-4h-8.4C11.6,11.2,11.2,11.6,11.2,12.1z"/>
</svg>
