<?xml version="1.0" encoding="utf-8"?>
<!-- Generator: Adobe Illustrator 21.0.0, SVG Export Plug-In . SVG Version: 6.00 Build 0)  -->
<svg version="1.1" id="Layer_1" xmlns="http://www.w3.org/2000/svg" xmlns:xlink="http://www.w3.org/1999/xlink" x="0px" y="0px"
	 viewBox="0 0 708.5 205.3" style="enable-background:new 0 0 708.5 205.3;" xml:space="preserve">
<style type="text/css">
	.st0{fill-rule:evenodd;clip-rule:evenodd;fill:#E7BA4E;}
	.st1{fill-rule:evenodd;clip-rule:evenodd;fill:#D2544E;}
	.st2{fill-rule:evenodd;clip-rule:evenodd;fill:#608BC7;}
	.st3{fill-rule:evenodd;clip-rule:evenodd;fill:#78B66B;}
	.st4{fill:#FFFFFF;}
</style>
<path class="st0" d="M8.5,105.5c-19.8,0-2.8,38.9,29.2,38.9h22.6c0.2,0,0.4,0.2,0.4,0.4v22.6c0,32,38.9,49,38.9,29.2v-82.5
	c0-4.8-3.9-8.7-8.7-8.7L8.5,105.5z"/>
<path class="st1" d="M37.7,60.8c-32,0-49,38.9-29.2,38.9l82.5,0c4.8,0,8.7-3.9,8.7-8.7l0-82.5c0-19.8-38.9-2.8-38.9,29.2v22.6
	c0,0.2-0.2,0.4-0.4,0.4H37.7z"/>
<path class="st2" d="M105.5,8.5V91c0,4.8,3.9,8.7,8.7,8.7h82.5c19.8,0,2.8-38.9-29.2-38.9h-22.6c-0.2,0-0.4-0.2-0.4-0.4V37.7
	C144.4,5.7,105.5-11.3,105.5,8.5z"/>
<path class="st3" d="M105.5,114.2v82.5c0,19.8,38.9,2.8,38.9-29.2v-22.6c0-0.2,0.2-0.4,0.4-0.4h22.6c32,0,49-38.9,29.2-38.9h-82.5
	C109.4,105.5,105.5,109.4,105.5,114.2z"/>
<g>
	<path class="st4" d="M274.3,97c-4.9,0-9.4,0.2-12.4,0.4l-0.4,0l-1.6,5.1l0.9-0.1c3.9-0.2,9.1-0.5,14.3-0.5
		c3.5,0,21.1,0.7,21.1,14.4c0,10.7-6.4,12.9-16.8,12.9h-20.9V78c0-2.2,0.8-2.9,3.4-2.9h37.6v-6.2h-48.7c-3.7,0-5.4,4.3-5.4,8.3v58.2
		h32.5c10.8,0,33.2,0,33.2-19C311.1,102.1,291.3,97,274.3,97z"/>
	<path class="st4" d="M342.2,102.9c-3.3,0-4.7,0.3-5.7,0.5l-0.3,0.1l-1.2,5.2l1-0.2c1.6-0.4,4.2-0.6,7.6-0.6
		c9.3,0,19.4,3.7,19.4,11.8c0,8.8-8,9.5-16.9,9.5h-13.1V81.2h-11.7v54.3h25.9c9.6,0,27.8-3.5,27.8-16.7
		C374.9,108.8,362.7,102.9,342.2,102.9z"/>
	<path class="st4" d="M437.3,79.6c-16.3,0-28.5,9.4-30.5,23.4h-10.4V81.2h-11.7v54.3h11.7v-26.2h10.1v0.3
		c0,16.2,12.7,27.4,30.8,27.4c17.9,0,30.9-12.1,30.9-28.7C468.2,91.7,455.2,79.6,437.3,79.6z M437.3,132.6
		c-11.9,0-17.8-7.9-17.8-24.3c0-16.3,5.8-24.3,17.8-24.3c12,0,17.9,7.9,17.9,24.3C455.1,124.7,449.3,132.6,437.3,132.6z"/>
	<polygon class="st4" points="467.7,87.4 489,87.4 489,135.4 500.7,135.4 500.7,87.4 522.1,87.4 522.1,81.2 467.7,81.2 	"/>
	<path class="st4" d="M544.6,126.8v-17.6h33.2V103h-33.2V89.2c0-0.6,0.1-1.1,0.4-1.3c0.5-0.5,1.7-0.5,3.2-0.5h33.7v-6.2h-43.8
		c-3.6,0-5.2,3.8-5.2,7.2v39.2c0,3.6,1.4,7.9,5.2,7.9h47v-6.2h-36.7C545.2,129.2,544.6,128.4,544.6,126.8z"/>
	<rect x="595.9" y="81.2" class="st4" width="11.7" height="54.3"/>
	<path class="st4" d="M620.5,104.6c-0.6,0-1.2,0-1.8,0l26.5-23.5h-8.3l-26.3,23.1v8.1l1.1-1.3c1.6-1.9,2.6-2.7,3.9-2.7
		c5.2,0,9.7,7.4,11.6,10.6l9.9,16.4h15.5l-11.2-16.9C635.7,110.2,632,104.6,620.5,104.6z"/>
	<path class="st4" d="M683.9,79.6c-7.7,0-17.7,0.6-26.4,5.2l-0.4,0.2l0.9,5.2l0.7-0.4c6.5-3.6,14.3-5.3,23.6-5.3
		c9.6,0,14.3,4.7,14.3,14.4v2.5h-7.2c-13.1,0-35,2.3-35,17.4c0,10.4,8.3,16.6,22.1,16.6H693l-3.2-6.2h-10.3c-9.1,0-12-2.1-12-8.8
		c0-11.7,8.7-14.1,21.7-14.1h7.5v29.1h11.7V97.3C708.4,86.2,699.3,79.6,683.9,79.6z"/>
</g>
</svg>
