<?xml version="1.0" encoding="utf-8"?>
<!-- Generator: Adobe Illustrator 21.0.0, SVG Export Plug-In . SVG Version: 6.00 Build 0)  -->
<svg version="1.1" id="Слой_1" xmlns="http://www.w3.org/2000/svg" xmlns:xlink="http://www.w3.org/1999/xlink" x="0px" y="0px"
	 viewBox="0 0 692.4 693.7" style="enable-background:new 0 0 692.4 693.7;" xml:space="preserve">
<style type="text/css">
	.vk{fill:#00B95A;}
	.vk2{fill:none;stroke:#00B95A;stroke-width:20;stroke-miterlimit:10;}
</style>
<g>
	<path class="vk" d="M457.5,399.3c-0.3-0.6-0.5-1-0.7-1.5c-3.9-6.9-11.2-15.5-22.1-25.6l-0.2-0.2l-0.1-0.1l-0.1-0.1h-0.1
		c-4.9-4.7-8.1-7.9-9.4-9.6c-2.4-3-2.9-6.2-1.7-9.4c0.9-2.4,4.4-7.5,10.5-15.2c3.1-4.1,5.7-7.3,7.6-9.9
		c13.4-17.8,19.2-29.2,17.4-34.1l-0.7-1.2c-0.4-0.7-1.7-1.4-3.6-1.9c-1.9-0.6-4.4-0.6-7.5-0.3l-33.5,0.2c-0.5-0.2-1.4-0.2-2.3,0.1
		c-1,0.2-1.5,0.3-1.5,0.3l-0.6,0.3l-0.4,0.3c-0.4,0.2-0.8,0.6-1.3,1.3c-0.4,0.6-0.8,1.3-1.2,2c-3.7,9.3-7.8,18.1-12.4,26.1
		c-2.8,4.8-5.5,8.9-7.9,12.5c-2.4,3.6-4.4,6.1-6.1,7.8c-1.6,1.7-3,3-4.4,4c-1.4,1-2.3,1.5-3,1.3c-0.7-0.1-1.4-0.3-2-0.4
		c-1-0.7-2-1.7-2.6-2.8s-1.2-2.7-1.4-4.5c-0.2-1.8-0.4-3.4-0.4-4.7s0-3.1,0.1-5.6c0.1-2.4,0.1-4,0.1-4.8c0-2.9,0.1-6.1,0.2-9.6
		c0.1-3.5,0.2-6.2,0.3-8.2c0.1-2,0.1-4.1,0.1-6.4c0-2.2-0.1-4-0.4-5.2c-0.3-1.3-0.6-2.5-1.3-3.7c-0.5-1.2-1.4-2.1-2.4-2.8
		c-1-0.6-2.3-1.2-3.9-1.6c-4.1-0.9-9.3-1.5-15.6-1.5c-14.4-0.1-23.6,0.7-27.7,2.8c-1.6,0.8-3,2-4.4,3.5c-1.4,1.7-1.6,2.6-0.6,2.8
		c4.6,0.7,8,2.3,9.9,5l0.7,1.4c0.5,1,1,2.8,1.6,5.4s0.8,5.4,1,8.5c0.4,5.7,0.4,10.5,0,14.5c-0.4,4-0.7,7.1-1.2,9.4
		c-0.3,2.2-0.8,4.1-1.6,5.5c-0.7,1.4-1.2,2.2-1.4,2.5c-0.2,0.3-0.4,0.5-0.6,0.6c-1,0.4-2.1,0.6-3.1,0.6c-1,0-2.4-0.5-4-1.6
		c-1.6-1-3.1-2.6-4.8-4.5c-1.7-1.9-3.6-4.5-5.7-8c-2.1-3.4-4.3-7.5-6.5-12.1l-1.9-3.4c-1.2-2.2-2.7-5.4-4.7-9.4
		c-2-4.1-3.8-8.2-5.4-12c-0.6-1.6-1.6-2.8-2.8-3.7l-0.6-0.3c-0.4-0.3-1-0.6-1.9-0.9c-0.8-0.3-1.8-0.6-2.6-0.7l-31.8,0.2
		c-3.3,0-5.5,0.7-6.6,2.2l-0.4,0.7c-0.2,0.4-0.3,1-0.3,1.9c0,0.8,0.2,1.9,0.7,3.1c4.6,10.9,9.7,21.4,15.1,31.6
		c5.5,10.2,10.2,18.3,14.2,24.5s8.1,12.1,12.3,17.5c4.2,5.5,6.9,9,8.3,10.6c1.4,1.6,2.4,2.7,3.1,3.5l2.9,2.8
		c1.9,1.9,4.6,4.1,8.2,6.7c3.6,2.6,7.6,5.1,12,7.7c4.4,2.5,9.4,4.5,15.2,6.2c5.8,1.6,11.4,2.2,16.9,1.9h13.3c2.7-0.2,4.7-1,6.2-2.5
		l0.4-0.6c0.3-0.4,0.6-1.2,0.8-2.1c0.3-0.9,0.4-2,0.4-3.1c-0.1-3.4,0.2-6.3,0.7-9c0.6-2.6,1.3-4.7,2-6.1c0.7-1.4,1.6-2.5,2.5-3.5
		c0.9-0.9,1.6-1.5,2-1.7s0.7-0.3,0.9-0.4c1.9-0.6,4.1,0,6.6,1.8s4.8,4.1,7,6.7c2.2,2.6,4.8,5.7,8,9c3.1,3.4,5.8,5.8,8.1,7.5l2.3,1.4
		c1.6,0.9,3.6,1.8,6.1,2.5s4.6,0.9,6.5,0.6l29.7-0.4c2.9,0,5.2-0.5,6.8-1.5c1.6-0.9,2.6-2,2.9-3.1c0.3-1.2,0.3-2.5,0.1-4
		C458,400.9,457.8,399.9,457.5,399.3z"/>
</g>
<circle class="vk2" cx="347.2" cy="347.9" r="333.3"/>
</svg>
