<svg xmlns="http://www.w3.org/2000/svg"><symbol id="arrow-down" viewBox="0 0 16 131"><path d="M16.01 122.48l-6.79 8-.41-.28v.3H7.66l-.64.48-7.03-8.86 1.5-1.14 5.26 6.64V0h2.06v128.23l5.75-6.78 1.45 1.03z" fill="#333"/></symbol><symbol id="arrow-fin" viewBox="0 0 96 137"><filter filterUnits="objectBoundingBox" x="0" y="0" width="100" height="100" id="a"><feFlood flood-color="#5F5F5F" result="coFloodOut1"/><feComposite in="coFloodOut1" in2="SourceAlpha" operator="in" result="coOverlay1"/><feBlend in="coOverlay1" in2="SourceGraphic" result="colorOverlay1"/></filter><path d="M56.01 87.51l-6.79 8-.41-.28v.3h-1.15l-.64.49-7.03-8.87 1.5-1.14 5.26 6.64V0h2.06v93.26l5.75-6.78 1.45 1.03z" fill="#333" filter="url(#a)"/><path d="M48 136c25.92 0 47-21.08 47-47S73.92 42 48 42 1 63.08 1 89s21.08 47 47 47m0 1c-26.51 0-48-21.49-48-48s21.49-48 48-48 48 21.49 48 48-21.49 48-48 48z" fill="#00B859"/></symbol><symbol id="arrow-next" viewBox="0 0 195 61"><path d="M166.66 29.94v.78l.33.45L161.1 36l-.75-1.03 4.43-3.63L0 31v-1l165.16-.06-4.5-3.95.68-1 5.32 4.67-.19.28h.19z" fill="#333"/><path d="M164.5 60c16.27 0 29.5-13.23 29.5-29.5S180.77 1 164.5 1 135 14.23 135 30.5 148.23 60 164.5 60m0 1C147.66 61 134 47.34 134 30.5S147.66 0 164.5 0 195 13.66 195 30.5 181.34 61 164.5 61z" fill="#00B859"/></symbol><symbol id="close" viewBox="0 0 100 100"><style>.cl{fill:none;stroke:#fff;stroke-width:2;stroke-miterlimit:10}</style><circle class="cl" cx="50" cy="50" r="48.9"/><path class="cl" d="M33.1 32.3l35.2 35.1M68 32.6L32.8 67.7"/></symbol><symbol id="fb" viewBox="0 0 692.4 693.7"><style>.qwer{fill:#00b95a}.e2{fill:none;stroke:#00b95a;stroke-width:20;stroke-miterlimit:10}</style><path class="qwer" d="M409 224.2l-32.1-.1c-36 0-59.3 23.9-59.3 60.8V313h-32.3c-2.7 0-5.1 2.2-5.1 5.1v40.7c0 2.7 2.2 5.1 5.1 5.1h32.3v102.6c0 2.7 2.2 5.1 5.1 5.1h42c2.7 0 5.1-2.2 5.1-5.1V363.8h37.6c2.7 0 5.1-2.2 5.1-5.1V318c0-1.4-.5-2.6-1.5-3.5-1-1-2.2-1.5-3.5-1.5h-37.7v-23.8c0-11.4 2.7-17.2 17.6-17.2H409c2.7 0 5.1-2.2 5.1-5.1v-37.7c-.1-2.7-2.4-5-5.1-5z"/><circle class="e2" cx="347.2" cy="347.9" r="333.3"/></symbol><symbol id="logo-text" viewBox="0 0 708.5 205.3"><style>.st0,.st1,.st2,.st3{fill-rule:evenodd;clip-rule:evenodd;fill:#e7ba4e}.st1,.st2,.st3{fill:#d2544e}.st2,.st3{fill:#608bc7}.st3{fill:#78b66b}.st4{fill:#fff}</style><path class="st0" d="M8.5 105.5c-19.8 0-2.8 38.9 29.2 38.9h22.6c.2 0 .4.2.4.4v22.6c0 32 38.9 49 38.9 29.2v-82.5c0-4.8-3.9-8.7-8.7-8.7l-82.4.1z"/><path class="st1" d="M37.7 60.8c-32 0-49 38.9-29.2 38.9H91c4.8 0 8.7-3.9 8.7-8.7V8.5c0-19.8-38.9-2.8-38.9 29.2v22.6c0 .2-.2.4-.4.4H37.7z"/><path class="st2" d="M105.5 8.5V91c0 4.8 3.9 8.7 8.7 8.7h82.5c19.8 0 2.8-38.9-29.2-38.9h-22.6c-.2 0-.4-.2-.4-.4V37.7c-.1-32-39-49-39-29.2z"/><path class="st3" d="M105.5 114.2v82.5c0 19.8 38.9 2.8 38.9-29.2v-22.6c0-.2.2-.4.4-.4h22.6c32 0 49-38.9 29.2-38.9h-82.5c-4.7-.1-8.6 3.8-8.6 8.6z"/><path class="st4" d="M274.3 97c-4.9 0-9.4.2-12.4.4h-.4l-1.6 5.1.9-.1c3.9-.2 9.1-.5 14.3-.5 3.5 0 21.1.7 21.1 14.4 0 10.7-6.4 12.9-16.8 12.9h-20.9V78c0-2.2.8-2.9 3.4-2.9h37.6v-6.2h-48.7c-3.7 0-5.4 4.3-5.4 8.3v58.2h32.5c10.8 0 33.2 0 33.2-19 0-14.3-19.8-19.4-36.8-19.4zM342.2 102.9c-3.3 0-4.7.3-5.7.5l-.3.1-1.2 5.2 1-.2c1.6-.4 4.2-.6 7.6-.6 9.3 0 19.4 3.7 19.4 11.8 0 8.8-8 9.5-16.9 9.5H333v-48h-11.7v54.3h25.9c9.6 0 27.8-3.5 27.8-16.7-.1-10-12.3-15.9-32.8-15.9zM437.3 79.6c-16.3 0-28.5 9.4-30.5 23.4h-10.4V81.2h-11.7v54.3h11.7v-26.2h10.1v.3c0 16.2 12.7 27.4 30.8 27.4 17.9 0 30.9-12.1 30.9-28.7s-13-28.7-30.9-28.7zm0 53c-11.9 0-17.8-7.9-17.8-24.3 0-16.3 5.8-24.3 17.8-24.3s17.9 7.9 17.9 24.3c-.1 16.4-5.9 24.3-17.9 24.3zM467.7 87.4H489v48h11.7v-48h21.4v-6.2h-54.4zM544.6 126.8v-17.6h33.2V103h-33.2V89.2c0-.6.1-1.1.4-1.3.5-.5 1.7-.5 3.2-.5h33.7v-6.2h-43.8c-3.6 0-5.2 3.8-5.2 7.2v39.2c0 3.6 1.4 7.9 5.2 7.9h47v-6.2h-36.7c-3.2-.1-3.8-.9-3.8-2.5zM595.9 81.2h11.7v54.3h-11.7zM620.5 104.6h-1.8l26.5-23.5h-8.3l-26.3 23.1v8.1l1.1-1.3c1.6-1.9 2.6-2.7 3.9-2.7 5.2 0 9.7 7.4 11.6 10.6l9.9 16.4h15.5l-11.2-16.9c-5.7-8.2-9.4-13.8-20.9-13.8zM683.9 79.6c-7.7 0-17.7.6-26.4 5.2l-.4.2.9 5.2.7-.4c6.5-3.6 14.3-5.3 23.6-5.3 9.6 0 14.3 4.7 14.3 14.4v2.5h-7.2c-13.1 0-35 2.3-35 17.4 0 10.4 8.3 16.6 22.1 16.6H693l-3.2-6.2h-10.3c-9.1 0-12-2.1-12-8.8 0-11.7 8.7-14.1 21.7-14.1h7.5v29.1h11.7V97.3c0-11.1-9.1-17.7-24.5-17.7z"/></symbol><symbol id="logo" viewBox="0 0 206 206"><style>.st0{fill:#e7ba4e}.st1{fill:#d2544e}.st2{fill:#608bc7}.st3{fill:#78b66b}</style><path class="st0" d="M8.9 105.9c-19.8 0-2.8 38.9 29.2 38.9h22.6c.2 0 .4.2.4.4v22.6c0 32 38.9 49 38.9 29.2v-82.5c0-4.8-3.9-8.7-8.7-8.7l-82.4.1z"/><path class="st1" d="M38.1 61.2c-32 0-49 38.9-29.2 38.9h82.5c4.8 0 8.7-3.9 8.7-8.7V8.9c0-19.8-38.9-2.8-38.9 29.2v22.6c0 .2-.2.4-.4.4l-22.7.1z"/><path class="st2" d="M105.9 8.9v82.5c0 4.8 3.9 8.7 8.7 8.7h82.5c19.8 0 2.8-38.9-29.2-38.9h-22.6c-.2 0-.4-.2-.4-.4V38.1c-.1-32-39-49-39-29.2z"/><path class="st3" d="M105.9 114.6v82.5c0 19.8 38.9 2.8 38.9-29.2v-22.6c0-.2.2-.4.4-.4h22.6c32 0 49-38.9 29.2-38.9h-82.5c-4.7-.1-8.6 3.8-8.6 8.6z"/></symbol><symbol id="vk" viewBox="0 0 692.4 693.7"><style>.vk{fill:#00b95a}.vk2{fill:none;stroke:#00b95a;stroke-width:20;stroke-miterlimit:10}</style><path class="vk" d="M457.5 399.3c-.3-.6-.5-1-.7-1.5-3.9-6.9-11.2-15.5-22.1-25.6l-.2-.2-.1-.1-.1-.1h-.1c-4.9-4.7-8.1-7.9-9.4-9.6-2.4-3-2.9-6.2-1.7-9.4.9-2.4 4.4-7.5 10.5-15.2 3.1-4.1 5.7-7.3 7.6-9.9 13.4-17.8 19.2-29.2 17.4-34.1l-.7-1.2c-.4-.7-1.7-1.4-3.6-1.9-1.9-.6-4.4-.6-7.5-.3l-33.5.2c-.5-.2-1.4-.2-2.3.1l-1.5.3-.6.3-.4.3c-.4.2-.8.6-1.3 1.3-.4.6-.8 1.3-1.2 2-3.7 9.3-7.8 18.1-12.4 26.1-2.8 4.8-5.5 8.9-7.9 12.5-2.4 3.6-4.4 6.1-6.1 7.8-1.6 1.7-3 3-4.4 4-1.4 1-2.3 1.5-3 1.3-.7-.1-1.4-.3-2-.4-1-.7-2-1.7-2.6-2.8s-1.2-2.7-1.4-4.5c-.2-1.8-.4-3.4-.4-4.7s0-3.1.1-5.6c.1-2.4.1-4 .1-4.8 0-2.9.1-6.1.2-9.6s.2-6.2.3-8.2c.1-2 .1-4.1.1-6.4 0-2.2-.1-4-.4-5.2-.3-1.3-.6-2.5-1.3-3.7-.5-1.2-1.4-2.1-2.4-2.8-1-.6-2.3-1.2-3.9-1.6-4.1-.9-9.3-1.5-15.6-1.5-14.4-.1-23.6.7-27.7 2.8-1.6.8-3 2-4.4 3.5-1.4 1.7-1.6 2.6-.6 2.8 4.6.7 8 2.3 9.9 5l.7 1.4c.5 1 1 2.8 1.6 5.4s.8 5.4 1 8.5c.4 5.7.4 10.5 0 14.5s-.7 7.1-1.2 9.4c-.3 2.2-.8 4.1-1.6 5.5-.7 1.4-1.2 2.2-1.4 2.5-.2.3-.4.5-.6.6-1 .4-2.1.6-3.1.6s-2.4-.5-4-1.6c-1.6-1-3.1-2.6-4.8-4.5-1.7-1.9-3.6-4.5-5.7-8-2.1-3.4-4.3-7.5-6.5-12.1l-1.9-3.4c-1.2-2.2-2.7-5.4-4.7-9.4-2-4.1-3.8-8.2-5.4-12-.6-1.6-1.6-2.8-2.8-3.7l-.6-.3c-.4-.3-1-.6-1.9-.9-.8-.3-1.8-.6-2.6-.7l-31.8.2c-3.3 0-5.5.7-6.6 2.2l-.4.7c-.2.4-.3 1-.3 1.9 0 .8.2 1.9.7 3.1 4.6 10.9 9.7 21.4 15.1 31.6 5.5 10.2 10.2 18.3 14.2 24.5s8.1 12.1 12.3 17.5c4.2 5.5 6.9 9 8.3 10.6 1.4 1.6 2.4 2.7 3.1 3.5l2.9 2.8c1.9 1.9 4.6 4.1 8.2 6.7 3.6 2.6 7.6 5.1 12 7.7 4.4 2.5 9.4 4.5 15.2 6.2 5.8 1.6 11.4 2.2 16.9 1.9h13.3c2.7-.2 4.7-1 6.2-2.5l.4-.6c.3-.4.6-1.2.8-2.1.3-.9.4-2 .4-3.1-.1-3.4.2-6.3.7-9 .6-2.6 1.3-4.7 2-6.1.7-1.4 1.6-2.5 2.5-3.5.9-.9 1.6-1.5 2-1.7s.7-.3.9-.4c1.9-.6 4.1 0 6.6 1.8s4.8 4.1 7 6.7c2.2 2.6 4.8 5.7 8 9 3.1 3.4 5.8 5.8 8.1 7.5l2.3 1.4c1.6.9 3.6 1.8 6.1 2.5s4.6.9 6.5.6l29.7-.4c2.9 0 5.2-.5 6.8-1.5 1.6-.9 2.6-2 2.9-3.1.3-1.2.3-2.5.1-4 .2-2.2 0-3.2-.3-3.8z"/><circle class="vk2" cx="347.2" cy="347.9" r="333.3"/></symbol></svg>